HIERARCHY
ROOT hip
{
	OFFSET 0.000000 0.000000 0.000000 
	CHANNELS 6 Xposition Yposition Zposition Xrotation Zrotation Yrotation
	JOINT abdomen
	{
		OFFSET 0.000000 3.402643 0.000000 
		CHANNELS 3 Xrotation Zrotation Yrotation
		JOINT chest
		{
			OFFSET 0.000000 8.438565 -0.680529 
			CHANNELS 3 Xrotation Zrotation Yrotation
			JOINT neck
			{
				OFFSET 0.000000 10.207942 -0.272212 
				CHANNELS 3 Xrotation Zrotation Yrotation
				JOINT head
				{
					OFFSET 0.000000 3.130431 0.000000 
					CHANNELS 3 Xrotation Zrotation Yrotation
					End Site
					{
						OFFSET 0.000000 3.130435 0.000000 
					}
				}
			}
			JOINT lCollar
			{
				OFFSET 3.470700 6.669187 -0.816635 
				CHANNELS 3 Yrotation Zrotation Xrotation
				JOINT lShldr
				{
					OFFSET 3.198488 0.000000 0.000000 
					CHANNELS 3 Zrotation Yrotation Xrotation
					JOINT lForeArm
					{
						OFFSET 10.139888 0.000000 0.000000 
						CHANNELS 3 Yrotation Zrotation Xrotation
						JOINT lHand
						{
							OFFSET 8.370511 0.000000 0.000000 
							CHANNELS 3 Zrotation Yrotation Xrotation
							End Site
							{
								OFFSET 4.083176 0.000000 0.000000 
							}
						}
					}
				}
			}
			JOINT rCollar
			{
				OFFSET -3.470700 6.669187 -0.816635 
				CHANNELS 3 Yrotation Zrotation Xrotation
				JOINT rShldr
				{
					OFFSET -3.198488 0.000000 0.000000 
					CHANNELS 3 Zrotation Yrotation Xrotation
					JOINT rForeArm
					{
						OFFSET -10.139888 0.000000 0.000000 
						CHANNELS 3 Yrotation Zrotation Xrotation
						JOINT rHand
						{
							OFFSET -8.370511 0.000000 0.000000 
							CHANNELS 3 Zrotation Yrotation Xrotation
							End Site
							{
								OFFSET -4.083176 0.000000 0.000000 
							}
						}
					}
				}
			}
		}
	}
	JOINT lThigh
	{
		OFFSET 5.308129 -1.633274 1.361059 
		CHANNELS 3 Xrotation Zrotation Yrotation
		JOINT lShin
		{
			OFFSET -2.041588 -20.007561 0.000000 
			CHANNELS 3 Xrotation Zrotation Yrotation
			JOINT lFoot
			{
				OFFSET 0.000000 -19.190928 -1.224953 
				CHANNELS 3 Xrotation Yrotation Zrotation
				End Site
				{
					OFFSET 0.000000 -2.449906 4.627600 
				}
			}
		}
	}
	JOINT rThigh
	{
		OFFSET -5.308129 -1.633274 1.361059 
		CHANNELS 3 Xrotation Zrotation Yrotation
		JOINT rShin
		{
			OFFSET 2.041588 -20.007561 0.000000 
			CHANNELS 3 Xrotation Zrotation Yrotation
			JOINT rFoot
			{
				OFFSET 0.000000 -19.190928 -1.224953 
				CHANNELS 3 Xrotation Yrotation Zrotation
				End Site
				{
					OFFSET 0.000000 -2.449906 4.627600 
				}
			}
		}
	}
}
MOTION
Frames: 11
Frame Time: 0.033333
28.100590 43.447132 37.547211 -4.532781 -5.519897 -52.981197 -25.449215 0.000000 0.000000 39.114834 3.288166 -0.702580 5.760506 -13.295181 26.799961 -16.785368 5.138378 22.430708 -6.005911 -15.138389 12.389460 -54.037930 -36.796886 23.823122 -68.412468 4.688999 -22.386333 14.913163 -30.527176 -4.740284 16.714746 7.668664 21.826897 65.262650 58.514313 53.069946 28.983723 -5.741494 -37.706654 -28.421650 47.497768 -14.552825 -23.375801 18.610300 6.263357 28.069172 1.756926 7.785453 5.803755 -0.382719 -13.795719 -7.762507 -17.366520 -11.680166 47.946301 4.041768 -16.735605 -24.169731 -3.902822 14.143349 
28.101610 43.452015 37.543793 -4.473769 -5.500870 -52.968819 -25.449215 0.000000 0.000000 39.077919 3.330636 -0.658336 5.974954 -13.231502 26.838547 -17.077625 5.008845 22.562054 -5.980554 -15.241137 12.408036 -53.964947 -36.850689 23.719198 -68.506989 4.681952 -22.326609 14.904236 -30.343443 -4.687088 16.658373 7.519428 21.785683 65.631516 58.606594 53.468639 28.801949 -5.696100 -37.832676 -28.467119 47.557087 -14.630171 -23.440708 18.665619 6.198765 28.067444 1.664624 7.841877 5.811777 -0.448737 -13.785544 -7.781220 -17.345125 -11.697883 47.892490 4.107851 -16.701071 -24.187456 -3.922148 14.074489 
28.103401 43.456898 37.542614 -4.424644 -5.491498 -52.964485 -25.449215 0.000000 0.000000 39.030796 3.374267 -0.638310 6.080378 -13.116516 26.861759 -17.212044 4.814277 22.709623 -5.944711 -15.340905 12.420377 -53.882763 -36.873154 23.583839 -68.625092 4.664172 -22.308107 14.782525 -30.132271 -4.603253 16.601265 7.390749 21.778856 65.976868 58.699150 53.848560 28.655342 -5.670586 -37.913036 -28.609686 47.571480 -14.736903 -23.509762 18.715094 6.243553 28.071627 1.620138 7.880139 5.823457 -0.568389 -13.720651 -7.830407 -17.326372 -11.654254 47.877224 4.168394 -16.658024 -24.193426 -3.957921 14.028904 
28.104740 43.458523 37.546764 -4.405024 -5.491642 -52.966351 -25.449215 0.000000 0.000000 39.020775 3.395553 -0.682777 5.902913 -13.073829 26.836573 -17.024786 4.739829 22.689144 -5.922637 -15.296118 12.411572 -53.857475 -36.885387 23.471601 -68.678703 4.682130 -22.311171 14.406599 -29.993700 -4.449533 16.640963 7.376328 21.900387 65.929375 58.791695 53.714783 28.765533 -5.732923 -37.897682 -28.644274 47.478859 -14.689179 -23.520834 18.706566 6.312542 28.107397 1.678915 7.883198 5.760203 -0.587459 -13.729837 -7.851282 -17.311775 -11.593898 47.902863 4.157011 -16.542868 -24.149399 -4.016070 14.002685 
28.105963 43.458523 37.549324 -4.414834 -5.491570 -52.965424 -25.449215 0.000000 0.000000 39.029560 3.401055 -0.738767 5.636667 -13.030167 26.806187 -16.730198 4.695588 22.652742 -5.898536 -15.220298 12.386242 -53.885475 -36.857616 23.438244 -68.708008 4.683703 -22.355137 14.090367 -29.951145 -4.319441 16.682447 7.433164 22.022440 65.732109 58.822197 53.429832 28.931257 -5.810824 -37.819771 -28.671955 47.368900 -14.620476 -23.533979 18.680532 6.374842 28.122908 1.732448 7.866125 5.733962 -0.595612 -13.743913 -7.860243 -17.269434 -11.543508 47.912563 4.108155 -16.475334 -24.077295 -4.060177 14.052659 
28.107103 43.459747 37.539684 -4.414762 -5.481833 -52.936871 -25.449215 0.000000 0.000000 39.057262 3.382399 -0.788669 5.407239 -12.921056 26.806625 -16.495178 4.708287 22.650894 -5.904064 -15.150496 12.353442 -53.944477 -36.739235 23.603302 -68.711807 4.627201 -22.454922 14.259506 -30.115391 -4.326358 16.678988 7.594205 21.995945 65.473274 58.731647 53.201569 29.065811 -5.872732 -37.630081 -28.711096 47.311001 -14.607370 -23.499517 18.695116 6.354742 28.016335 1.683600 7.818439 5.806837 -0.586552 -13.716920 -7.928304 -17.268980 -11.547278 47.994114 4.090068 -16.525276 -24.018354 -4.043935 14.142034 
28.107510 43.458931 37.532482 -4.434309 -5.471952 -52.925991 -25.449215 0.000000 0.000000 39.084782 3.343599 -0.818296 5.238006 -12.841182 26.801744 -16.279991 4.739981 22.644587 -5.921498 -15.113725 12.331277 -54.009136 -36.614277 23.794409 -68.694984 4.575868 -22.552763 14.544641 -30.325384 -4.402778 16.668480 7.759252 21.927324 65.258873 58.605453 53.043617 29.153881 -5.898270 -37.446972 -28.768080 47.297127 -14.629135 -23.453142 18.716969 6.386447 27.927971 1.644647 7.753162 5.886745 -0.567277 -13.696680 -7.988108 -17.293804 -11.552412 48.058960 4.059330 -16.619532 -23.972015 -4.006243 14.199378 
28.105963 43.453236 37.544403 -4.503128 -5.490914 -52.986305 -25.449215 0.000000 0.000000 39.113632 3.310776 -0.794241 5.239808 -12.868056 26.779776 -16.094061 4.761618 22.627743 -5.914879 -15.144688 12.370490 -54.004257 -36.586296 23.827854 -68.641609 4.587678 -22.510649 14.707033 -30.417503 -4.548986 16.669374 7.750890 21.899261 65.315491 58.528164 53.139282 29.086546 -5.840856 -37.447971 -28.881445 47.372467 -14.728961 -23.378063 18.671091 6.577549 27.967827 1.772151 7.722983 5.830974 -0.603340 -13.721011 -7.918779 -17.318810 -11.528527 48.032761 4.050977 -16.694389 -24.060425 -3.965060 14.181445 
28.104296 43.446320 37.558525 -4.581836 -5.519523 -53.054626 -25.449215 0.000000 0.000000 39.152306 3.273479 -0.761026 5.321861 -12.964120 26.758360 -15.996433 4.791806 22.592518 -5.931250 -15.212621 12.436381 -53.967598 -36.552456 23.803823 -68.601997 4.621423 -22.555006 14.707001 -30.551741 -4.627308 16.679668 7.782506 21.888838 65.311951 58.439987 53.219166 29.044441 -5.779532 -37.444481 -29.005365 47.447495 -14.829071 -23.286020 18.608393 6.809132 28.092894 1.942160 7.711244 5.715148 -0.638179 -13.758373 -7.811446 -17.357992 -11.538064 47.987247 4.003689 -16.729351 -24.160318 -3.930694 14.147764 
28.104296 43.446320 37.558525 -4.581836 -5.519523 -53.054626 -25.449215 0.000000 0.000000 39.152306 3.273479 -0.761026 5.321861 -12.964120 26.758360 -15.996433 4.791806 22.592518 -5.931250 -15.212621 12.436381 -53.967598 -36.552456 23.803823 -68.601997 4.621423 -22.555006 14.707001 -30.551741 -4.627308 16.679668 7.782506 21.888838 65.311951 58.439987 53.219166 29.044441 -5.779532 -37.444481 -29.005365 47.447495 -14.829071 -23.286020 18.608393 6.809132 28.092894 1.942160 7.711244 5.715148 -0.638179 -13.758373 -7.811446 -17.357992 -11.538064 47.987247 4.003689 -16.729351 -24.160318 -3.930694 14.147764 
28.135174 43.393024 37.547821 -4.581686 -5.500055 -53.056179 -25.449215 0.000000 0.000000 39.092239 3.212151 -0.741014 5.755077 -12.852167 26.126245 -16.210079 4.634636 23.126080 -6.078691 -15.121412 12.447767 -54.195370 -36.818771 18.730541 -68.607185 0.136177 -21.470045 13.243308 -30.969000 -3.700393 16.527189 8.255471 21.560696 65.229446 58.079433 52.404980 29.324940 -4.743582 -38.660080 -27.443800 48.535980 -12.116728 -23.847576 18.749969 6.245582 28.770117 1.586435 7.687759 5.527376 -0.210972 -13.743826 -8.056088 -17.447163 -12.589354 48.336605 3.240899 -15.782214 -24.423452 -4.075303 14.297746 
